<?xml version="1.0" encoding="UTF-8" standalone="no"?>
<!-- Created with Inkscape (http://www.inkscape.org/) -->

<svg
   width="841.10797"
   height="747.61523"
   viewBox="0 0 222.54314 197.80654"
   version="1.1"
   id="svg5"
   inkscape:version="1.2.2 (1:1.2.2+202305151914+b0a8486541)"
   sodipodi:docname="2.svg"
   xml:space="preserve"
   xmlns:inkscape="http://www.inkscape.org/namespaces/inkscape"
   xmlns:sodipodi="http://sodipodi.sourceforge.net/DTD/sodipodi-0.dtd"
   xmlns="http://www.w3.org/2000/svg"
   xmlns:svg="http://www.w3.org/2000/svg"><sodipodi:namedview
     id="namedview7"
     pagecolor="#ffffff"
     bordercolor="#666666"
     borderopacity="1.0"
     inkscape:showpageshadow="2"
     inkscape:pageopacity="0.0"
     inkscape:pagecheckerboard="false"
     inkscape:deskcolor="#d1d1d1"
     inkscape:document-units="px"
     showgrid="false"
     showborder="true"
     shape-rendering="auto"
     inkscape:zoom="1.5516003"
     inkscape:cx="335.78235"
     inkscape:cy="374.45211"
     inkscape:window-width="1920"
     inkscape:window-height="1054"
     inkscape:window-x="0"
     inkscape:window-y="0"
     inkscape:window-maximized="1"
     inkscape:current-layer="layer1" /><defs
     id="defs2" /><g
     inkscape:label="Layer 1"
     inkscape:groupmode="layer"
     id="layer1"
     transform="translate(-40.614748,249.95265)"><g
       id="g2608"
       transform="translate(1.6326435,-130.73221)"
       style="stroke:#ff00ff;stroke-opacity:1"><g
         id="g2292"
         style="stroke:#ff00ff;stroke-opacity:1"><path
           id="rect2237"
           style="fill:none;fill-opacity:1;stroke:#ff00ff;stroke-width:2.91042;stroke-dasharray:none;stop-color:#000000;stroke-opacity:1"
           d="m 215.37575,50.554066 h -97.82373 c -2.48127,0 -4.47882,-1.997556 -4.47882,-4.478824 V 29.384704"
           sodipodi:nodetypes="cssc" /></g></g><path
       id="path4617"
       style="fill:#333333;stroke-width:1"
       d="m 168.41531,-181.21767 c -0.8446,0 -1.95688,0.69015 -2.3119,1.43463 -0.22296,0.46755 -0.49965,0.72334 -0.78845,0.72741 -0.97494,0.015 -1.788,1.2756 -1.43,2.2172 0.14827,0.39 0.0997,0.55577 -0.22101,0.75604 -0.51169,0.31956 -0.54924,1.46691 -0.0656,2.00124 0.3165,0.34971 0.31444,0.47294 -0.0257,1.49693 -0.60015,1.80687 -0.47888,3.87883 0.32245,5.50657 0.80133,1.62773 2.37216,3.11523 3.94902,3.73938 h 4.2e-4 c 1.64806,0.65202 4.35222,0.52303 5.9229,-0.28288 3.28013,-1.68305 4.79454,-5.23978 3.72717,-8.75385 -0.37181,-1.22409 -0.41653,-1.61607 -0.21216,-1.86232 0.20129,-0.24214 0.20164,-0.43802 0.002,-0.87686 -0.17954,-0.39404 -0.18903,-0.63354 -0.0316,-0.79098 0.41425,-0.41425 0.2478,-1.43056 -0.32877,-2.00713 -0.43983,-0.43958 -0.69966,-0.53114 -1.25404,-0.44117 -0.53438,0.0867 -0.75934,0.0162 -0.95558,-0.29804 -0.14555,-0.23307 -0.49927,-0.41085 -0.81665,-0.41085 -0.34688,0 -0.72838,-0.21403 -1.00274,-0.56283 -0.38618,-0.4909 -0.56189,-0.54954 -1.374,-0.45801 -0.65162,0.0735 -1.00885,0.0115 -1.18921,-0.20585 -0.36639,-0.44146 -1.37172,-0.92863 -1.91621,-0.92863 z m -0.1267,0.3233 c 0.81395,0 1.09843,0.11896 1.71751,0.71899 0.4632,0.44895 0.79659,0.63118 0.88696,0.48495 0.38594,-0.62446 2.27486,0.0865 2.27486,0.85623 0,0.12551 0.10247,0.16503 0.22774,0.0876 0.36829,-0.22761 1.28099,0.0948 1.28099,0.45253 0,0.25495 0.15856,0.29886 0.70594,0.19617 0.53399,-0.10018 0.84943,-0.0199 1.29319,0.32919 0.62535,0.4919 0.7349,1.04476 0.3494,1.76509 -0.17196,0.32115 -0.17296,0.58673 -0.003,0.95893 0.19297,0.42351 0.15986,0.58988 -0.18816,0.93791 -0.23266,0.23267 -0.55868,0.37117 -0.72406,0.30771 -0.21996,-0.0844 -0.27397,0.0232 -0.20164,0.4016 0.14014,0.7331 -0.48772,1.30543 -1.26245,1.15048 -0.46178,-0.0924 -0.66139,-0.0196 -0.83434,0.30352 -0.27346,0.51096 -0.91749,0.55082 -1.38243,0.0859 -0.3079,-0.3079 -0.33888,-0.29946 -0.33888,0.0922 0,0.23689 -0.25564,0.632 -0.56787,0.8777 -0.31232,0.2456 -0.74843,0.44664 -0.96947,0.44664 -0.4287,0 -1.26414,-0.71557 -1.26414,-1.08271 0,-0.12128 -0.22469,-0.0734 -0.49926,0.1065 -0.43458,0.28475 -0.55318,0.28732 -0.91601,0.019 -0.27814,-0.20574 -0.70981,-0.26887 -1.29781,-0.18985 -0.77991,0.10483 -0.93641,0.0484 -1.36054,-0.49084 -0.45695,-0.58093 -0.47615,-0.81148 -0.13681,-1.63333 0.11674,-0.28278 0.0563,-0.3372 -0.27699,-0.25004 -1.12792,0.29495 -1.88881,-1.30033 -0.91138,-1.91074 0.34934,-0.21815 0.39906,-0.42003 0.29341,-1.19089 -0.15345,-1.11951 0.31499,-1.78276 1.25909,-1.78276 0.39847,0 0.61333,-0.11204 0.61333,-0.31993 0,-0.17594 0.28301,-0.63664 0.62892,-1.02377 0.53477,-0.59852 0.7747,-0.70385 1.60427,-0.70385 z m -8.63177,3.21949 c -0.33583,-5.8e-4 -0.67869,0.0729 -1.00946,0.22984 -0.6686,0.31728 -1.04449,0.93142 -3.60635,5.88838 -3.02832,5.85949 -3.24354,6.51836 -2.49924,7.65431 0.40175,0.61315 9.47828,7.9542 10.11859,8.18386 0.356,0.1277 0.37718,1.42747 0.37718,23.17001 v 23.0349 l 0.50137,0.94968 c 0.3124,0.59219 0.81968,1.13115 1.34706,1.43127 2.00186,1.13917 4.39206,0.0645 5.03931,-2.26604 0.14155,-0.50962 0.22314,-5.45231 0.22395,-13.57172 8.2e-4,-12.62611 0.007,-12.77022 0.43232,-12.77022 0.42617,0 0.43107,0.14351 0.43107,12.93861 0,13.95926 -0.0117,13.80909 1.14164,15.04424 1.54801,1.65795 3.9864,1.40501 5.32765,-0.5523 l 0.53547,-0.78088 0.0564,-23.24706 c 0.0533,-21.84829 0.0793,-23.25513 0.43106,-23.38007 0.60913,-0.21632 9.74114,-7.6126 10.12786,-8.20281 0.19514,-0.29783 0.35487,-0.84509 0.35487,-1.21615 0,-0.7892 -5.00862,-10.90794 -5.84123,-11.80074 -1.40612,-1.50775 -4.02985,-0.43613 -4.02985,1.64594 0,0.45899 0.75912,2.18782 2.22098,5.05741 1.22163,2.39801 2.13801,4.44085 2.03661,4.5392 -0.1014,0.0984 -1.34826,1.10725 -2.77076,2.24203 l -2.58638,2.06312 -7.47286,4.3e-4 -7.47329,8.1e-4 -2.44114,-1.96504 c -1.34269,-1.08078 -2.56799,-2.08386 -2.72277,-2.22897 -0.22886,-0.21459 0.14851,-1.12989 2.02061,-4.90123 2.24536,-4.52334 2.29542,-4.65645 2.04376,-5.41902 -0.36287,-1.09945 -1.30694,-1.77005 -2.31444,-1.77181 z" /><path
       id="rect4551"
       style="fill:#000000;stroke:none;stroke-width:2.91042;stroke-dasharray:none;stroke-opacity:1;stop-color:#000000"
       d="m 96.762747,-133.55571 v 0.0796 h -4.72323 c -2.59765,0 -5.07418,0.12215 -5.50354,0.27182 -2.1998,0.76686 -2.03851,4.03578 0.23875,4.8395 0.41093,0.14503 0.46302,0.57741 0.46302,3.84214 0,3.01505 0.11472,4.13181 0.63717,6.19135 1.81483,7.15429 6.34736,12.86674 12.594063,15.87293 1.29037,0.62099 2.30636,1.25523 2.25775,1.40974 -0.0486,0.15451 -1.00642,1.493969 -2.12856,2.976565 l -2.040183,2.69596 h -1.2945 c -1.20436,0 -1.29449,0.04603 -1.29449,0.661458 l -5.2e-4,0.661458 h 3.72432 3.724323 l 3.6096,-2.84427 3.60908,-2.844271 31.49421,-0.07648 c 17.32165,-0.04189 31.85088,-0.01 32.28744,0.0708 0.46591,0.08619 2.21436,1.287993 4.23333,2.9099 l 3.43958,2.763139 3.77031,0.01085 3.77032,0.01033 v -0.661458 c 0,-0.615167 -0.0899,-0.661458 -1.29036,-0.661458 h -1.29088 l -2.02727,-2.651518 c -1.11481,-1.458247 -2.07902,-2.797705 -2.14302,-2.976565 -0.0697,-0.19484 0.56177,-0.62771 1.57562,-1.08004 5.00132,-2.23132 9.30365,-6.52958 11.6768,-11.66595 1.61121,-3.48725 2.01563,-5.38535 2.16163,-10.15339 0.12789,-4.17665 0.15137,-4.32554 0.72708,-4.54442 0.81824,-0.3111 1.7229,-1.52452 1.7229,-2.31097 0,-0.97511 -0.79873,-2.1383 -1.67949,-2.44533 -0.52412,-0.18272 -17.06921,-0.27182 -50.35042,-0.27182 H 99.143477 v -0.0796 z" /><g
       id="g4487"
       transform="translate(4.5540823,-97.416647)"><path
         id="path3908"
         style="fill:#000000;stroke-width:0.999999"
         d="m 142.94538,-128.28198 c 2.10917,0 2.06279,-0.0748 2.06279,3.32819 0,2.0068 -0.0743,2.99325 -0.23748,3.15636 -0.1412,0.14119 -0.82158,0.23748 -1.68051,0.23748 h -1.44303 v -3.36102 -3.36101 z m 2.65591,1.5299 4.89324,0.10774 c 5.26024,0.11582 5.97317,0.22748 8.2083,1.2824 3.37596,1.59335 5.85221,4.53762 6.85293,8.14883 0.32856,1.18567 0.40931,2.05153 0.40931,4.38546 v 2.90844 l 0.7414,0.0614 c 0.59554,0.0493 0.75361,0.14891 0.80434,0.50624 l 0.0634,0.44483 h -3.27606 c -3.08239,0 -3.27568,-0.0224 -3.27568,-0.37456 0,-0.41032 0.36645,-0.61397 1.10361,-0.61397 0.47436,0 0.478,-0.0146 0.4765,-2.02649 -7.5e-4,-1.11457 -0.0939,-2.60479 -0.20659,-3.31158 -0.57973,-3.63536 -3.36469,-6.65481 -7.01627,-7.60592 -0.87155,-0.22701 -2.24002,-0.30236 -5.47053,-0.30236 h -4.30784 v -1.80523 z m 23.27609,18.63618 1.38202,0.6912 c 2.4608,1.23109 4.00509,3.01902 4.32252,5.00406 l 0.13283,0.82906 h -10.43018 -10.43019 l 0.12936,-0.80898 c 0.30855,-1.92952 1.93772,-3.82954 4.29549,-5.00908 l 1.41213,-0.70626 h 4.59321 z m 6.77532,7.31167 v 0.66069 c 0,0.363365 -0.0602,0.720545 -0.1336,0.793925 -0.0734,0.0734 -5.16682,0.11071 -11.31871,0.0826 l -11.1851,-0.051 v -0.691975 -0.69196 l 11.3187,-0.0513 z m -19.35749,3.759905 c 0.3513,0 0.81213,1.00924 1.02329,2.24196 0.18986,1.10839 0.17437,1.34157 -0.11932,1.78979 -0.39295,0.59972 -1.12343,0.68104 -1.62375,0.18072 -0.26671,-0.26669 -0.31466,-0.58132 -0.23709,-1.54768 0.0959,-1.19485 0.62365,-2.66479 0.95687,-2.66479 z m 16.04938,0.0811 c 0.32464,-0.0506 0.7747,0.91476 0.98815,2.16087 0.18986,1.10839 0.17437,1.34157 -0.11932,1.78979 -0.39322,0.60013 -1.12334,0.68074 -1.62452,0.17956 -0.27299,-0.27298 -0.31393,-0.56695 -0.21972,-1.57586 0.1107,-1.18535 0.50489,-2.27852 0.91246,-2.53042 0.0204,-0.0126 0.0413,-0.0206 0.0629,-0.0239 z m -10.57113,0.003 c 0.0877,0.0181 0.16829,0.12822 0.30853,0.34406 0.16491,0.25382 0.40853,1.05595 0.54138,1.78245 0.21334,1.16666 0.20279,1.3802 -0.0911,1.82878 -0.38112,0.58167 -1.11909,0.67303 -1.59479,0.19732 -0.57851,-0.57851 -0.24562,-3.28292 0.48539,-3.94448 0.16815,-0.15218 0.26287,-0.22624 0.35062,-0.20813 z m 5.30757,10e-4 c 0.10507,-7e-4 0.19441,0.11853 0.36723,0.38228 0.18039,0.27532 0.42634,1.07383 0.5464,1.77473 0.18986,1.10838 0.17437,1.34156 -0.11932,1.78978 -0.38592,0.58899 -1.12141,0.68306 -1.59981,0.20466 -0.57851,-0.57851 -0.24562,-3.28292 0.48539,-3.94448 0.14734,-0.13334 0.23839,-0.20643 0.32011,-0.20697 z m 2.55976,6.08334 c 0.0193,-0.002 0.0384,-6e-4 0.0575,0.003 0.48571,0.0935 0.86242,1.08246 0.96652,2.53737 0.0869,1.21483 0.0577,1.342746 -0.37379,1.644978 -0.25733,0.180243 -0.58688,0.282167 -0.73252,0.226281 -0.14563,-0.05589 -0.33953,-0.101556 -0.43094,-0.101556 -0.0914,0 -0.26528,-0.299912 -0.38614,-0.666103 -0.34715,-1.05188 0.30147,-3.5935 0.89933,-3.64406 z m -5.30988,0.009 c 0.44704,-0.0262 0.88182,0.93768 0.99586,2.53157 0.0869,1.21484 0.0577,1.342754 -0.37379,1.644986 -0.25733,0.180243 -0.58688,0.282167 -0.73252,0.226282 -0.14563,-0.05589 -0.33232,-0.101557 -0.41471,-0.101557 -0.0824,0 -0.25669,-0.234606 -0.38731,-0.521301 -0.2718,-0.59653 -0.13112,-1.94178 0.32398,-3.0965 0.17926,-0.45485 0.38528,-0.67156 0.58849,-0.68348 z m -5.33808,0 c 0.44704,-0.0262 0.88182,0.93768 0.99586,2.53157 0.0869,1.21484 0.0577,1.342754 -0.37379,1.644986 -0.25733,0.180243 -0.58688,0.282167 -0.73252,0.226282 -0.14563,-0.05589 -0.33232,-0.101557 -0.41471,-0.101557 -0.0824,0 -0.25668,-0.234598 -0.38731,-0.521301 -0.27179,-0.59653 -0.13112,-1.94178 0.32398,-3.0965 0.17926,-0.45485 0.38528,-0.67156 0.58849,-0.68348 z m 16.01385,7.5e-4 c 0.44785,-0.0264 0.88215,0.93605 0.99625,2.5308 0.0867,1.21205 0.0569,1.34328 -0.36993,1.642279 -0.60967,0.427034 -0.69928,0.414752 -1.29165,-0.177627 -0.45661,-0.456612 -0.48992,-0.597032 -0.36298,-1.532222 0.0769,-0.56626 0.27378,-1.36746 0.43789,-1.78052 0.18047,-0.45422 0.38685,-0.67069 0.59042,-0.68271 z m -21.35232,0 c 0.44778,-0.0264 0.88215,0.93612 0.99625,2.5308 0.0869,1.21484 0.0577,1.34275 -0.37379,1.644981 -0.25733,0.180243 -0.58688,0.282168 -0.73252,0.226282 -0.14564,-0.05589 -0.33578,-0.101556 -0.42244,-0.101556 -0.0867,0 -0.26596,-0.261938 -0.3985,-0.581917 -0.26939,-0.65035 -0.13643,-1.83352 0.34096,-3.03588 0.18038,-0.45428 0.3865,-0.6707 0.59004,-0.68271 z" /><path
         style="font-variation-settings:normal;opacity:1;fill:none;fill-opacity:1;stroke:#ff0000;stroke-width:2.91042;stroke-linecap:butt;stroke-linejoin:miter;stroke-miterlimit:4;stroke-dasharray:none;stroke-dashoffset:0;stroke-opacity:1;stop-color:#000000;stop-opacity:1"
         d="m 36.060666,-145.42611 h 69.991774 v 20.50514"
         id="path4110"
         sodipodi:nodetypes="ccc" /><path
         style="font-variation-settings:normal;opacity:1;fill:none;fill-opacity:1;stroke:#0000ff;stroke-width:2.91042;stroke-linecap:butt;stroke-linejoin:miter;stroke-miterlimit:4;stroke-dasharray:none;stroke-dashoffset:0;stroke-opacity:1;stop-color:#000000;stop-opacity:1"
         d="m 36.060666,-104.41583 h 69.991774 v -20.50514"
         id="path4112"
         sodipodi:nodetypes="ccc" /><path
         style="fill:none;stroke:#ff00ff;stroke-width:2.91042;stroke-dasharray:none;stroke-opacity:1;stop-color:#000000"
         d="m 106.05244,-124.92097 h 35.59471"
         id="path4220" /><circle
         style="fill:#000000;stroke:none;stroke-width:2.91042;stroke-dasharray:none;stroke-opacity:1;stop-color:#000000"
         id="path4318"
         cx="106.05244"
         cy="-124.92097"
         r="4.9495039" /><path
         id="path4377"
         style="fill:#000000;stroke-width:0.999996"
         d="m 86.423378,-152.536 c -0.488016,0 -0.884263,0.18577 -1.175977,0.55137 l -0.24782,0.31062 h -0.795322 c -0.748779,0 -0.803358,-0.0123 -0.933542,-0.21095 -0.18846,-0.28763 -0.806959,-0.51532 -1.199883,-0.4416 -1.023637,0.19203 -1.386927,1.50628 -0.605916,2.19201 0.535402,0.47009 1.256209,0.43689 1.744348,-0.0803 0.228569,-0.24217 0.269163,-0.25237 1.002571,-0.25237 h 0.764343 l 0.331493,0.36634 0.33133,0.36635 0.0035,0.96098 0.0037,0.96115 -0.366345,0.18873 c -0.201492,0.10385 -0.463321,0.27947 -0.581844,0.39026 -0.174214,0.16283 -0.253114,0.194 -1.187255,0.20539 v 3.21782 l 0.03215,-7.3e-4 0.956944,-0.0242 0.448168,0.30153 c 0.246478,0.16587 0.591544,0.34139 0.766868,0.39008 0.752233,0.20892 1.598365,0.0424 2.188644,-0.43099 l 0.318197,-0.25523 h 0.84953 v -3.18936 h -0.773595 l -0.301529,-0.26483 c -0.16586,-0.14563 -0.432879,-0.32722 -0.593289,-0.40372 l -0.291596,-0.13923 0.0022,-0.95375 0.0023,-0.95374 0.345808,-0.36635 0.345635,-0.36634 h 0.756598 c 0.728978,0 0.76561,0.009 1.005601,0.25994 0.323732,0.33791 0.830276,0.47891 1.258806,0.35052 0.352502,-0.10561 0.819036,-0.57955 0.90408,-0.91839 0.148545,-0.59185 -0.204056,-1.24182 -0.796497,-1.46808 -0.486872,-0.18593 -0.902208,-0.10316 -1.308137,0.26079 -0.304195,0.27275 -0.351067,0.28588 -1.070417,0.30204 l -0.75222,0.017 -0.273414,-0.31146 c -0.351444,-0.40028 -0.669228,-0.56114 -1.108297,-0.56114 z" /><path
         id="path4431"
         style="fill:#000000;stroke-width:0.999996"
         d="m 86.423378,-111.5424 c -0.488016,0 -0.884263,0.18577 -1.175977,0.55137 l -0.24782,0.31062 h -0.795322 c -0.748779,0 -0.803358,-0.0123 -0.933542,-0.21095 -0.18846,-0.28763 -0.806959,-0.51532 -1.199883,-0.4416 -1.023637,0.19203 -1.386927,1.50628 -0.605916,2.19201 0.535402,0.47009 1.256209,0.43689 1.744348,-0.0803 0.228569,-0.24217 0.269163,-0.25237 1.002571,-0.25237 h 0.764343 l 0.331493,0.36634 0.33133,0.36635 0.0035,0.96098 0.0037,0.96115 -0.366345,0.18873 c -0.201492,0.10385 -0.463321,0.27947 -0.581844,0.39026 -0.174214,0.16283 -0.253114,0.194 -1.187255,0.20539 v 3.21782 l 0.03215,-7.3e-4 0.956944,-0.0242 0.448168,0.30153 c 0.246478,0.16587 0.591544,0.34139 0.766868,0.39008 0.752233,0.20892 1.598365,0.0424 2.188644,-0.43099 l 0.318197,-0.25523 h 0.84953 v -3.18936 h -0.773595 l -0.301529,-0.26483 c -0.16586,-0.14563 -0.432879,-0.32722 -0.593289,-0.40372 l -0.291596,-0.13923 0.0022,-0.95375 0.0023,-0.95374 0.345808,-0.36635 0.345635,-0.36634 h 0.756598 c 0.728978,0 0.76561,0.009 1.005601,0.25994 0.323732,0.33791 0.830276,0.47891 1.258806,0.35052 0.352502,-0.10561 0.819036,-0.57955 0.90408,-0.91839 0.148545,-0.59185 -0.204056,-1.24182 -0.796497,-1.46808 -0.486872,-0.18593 -0.902208,-0.10316 -1.308137,0.26079 -0.304195,0.27275 -0.351067,0.28588 -1.070417,0.30204 l -0.75222,0.017 -0.273414,-0.31146 c -0.351444,-0.40028 -0.669228,-0.56114 -1.108297,-0.56114 z" /></g><path
       id="path5022"
       style="fill:#000000;stroke-width:1"
       d="m 238.94954,-94.653622 c 1.14083,-0.006 2.23962,0.004 2.22932,0.0346 -0.008,0.0241 -0.0556,0.0663 -0.10593,0.094 -0.0503,0.0278 -0.10172,0.0638 -0.11472,0.0801 -0.013,0.0163 -0.12981,0.10999 -0.25942,0.20825 -0.47885,0.363 -1.1682,1.051 -1.60404,1.60042 -0.10279,0.12958 -0.21669,0.26651 -0.25269,0.30438 -0.036,0.0379 -0.12773,0.17037 -0.20413,0.29455 -0.0764,0.12418 -0.15603,0.22583 -0.17673,0.22583 -0.0207,0 -0.0504,0.0373 -0.0661,0.0827 -0.0156,0.0454 -0.0654,0.13869 -0.1111,0.20774 -0.22241,0.33628 -0.62528,1.02384 -0.62528,1.06712 0,0.0269 -0.0157,0.0555 -0.0351,0.0641 -0.0449,0.02 -0.24753,0.4328 -0.24753,0.50436 0,0.0296 -0.0211,0.0537 -0.047,0.0537 -0.0259,0 -0.0475,0.0225 -0.0475,0.0501 0,0.0276 -0.0526,0.16594 -0.11731,0.30747 -0.0647,0.14154 -0.17169,0.38947 -0.23719,0.55087 -0.0655,0.1614 -0.13955,0.33017 -0.16485,0.37518 -0.0252,0.045 -0.0464,0.11913 -0.0465,0.16485 -2e-4,0.0457 -0.0316,0.14382 -0.0703,0.21807 -0.0387,0.0742 -0.0708,0.15587 -0.0708,0.18139 0,0.0255 -0.0301,0.11364 -0.0667,0.19533 -0.0366,0.0817 -0.0797,0.22784 -0.0961,0.32505 -0.0164,0.0972 -0.048,0.17673 -0.0698,0.17673 -0.0218,0 -0.0546,0.10063 -0.0729,0.22376 -0.0183,0.12314 -0.0493,0.24538 -0.0692,0.2713 -0.0199,0.0259 -0.0511,0.14146 -0.0687,0.25683 -0.0177,0.11537 -0.0496,0.23169 -0.0713,0.2589 -0.0217,0.0272 -0.0503,0.12373 -0.0636,0.21446 -0.0133,0.0907 -0.0694,0.36661 -0.12454,0.61288 -0.12431,0.55575 -0.23102,1.21219 -0.28732,1.76734 -0.0237,0.2333 -0.064,0.59411 -0.0899,0.8015 -0.11761,0.9423 -0.0967,3.30363 0.0403,4.52479 0.0456,0.40656 0.0817,0.65683 0.21084,1.46089 0.0253,0.15744 0.12808,0.66467 0.21498,1.06092 0.11128,0.50754 0.31293,1.22467 0.40772,1.45055 0.0358,0.0851 0.0651,0.20737 0.0651,0.2713 0,0.0639 0.0189,0.11628 0.0419,0.11628 0.0231,0 0.0555,0.0731 0.0723,0.16278 0.0168,0.0896 0.0614,0.22217 0.0992,0.294552 0.0377,0.07238 0.0686,0.155561 0.0687,0.185001 2e-4,0.02944 0.0321,0.114369 0.0708,0.188619 0.0387,0.07425 0.0707,0.172188 0.0708,0.217558 10e-5,0.04536 0.0193,0.08268 0.0424,0.08268 0.0231,0 0.0556,0.0579 0.0724,0.129191 0.0167,0.07129 0.0595,0.193532 0.0956,0.271302 0.13706,0.295475 0.21394,0.487121 0.21394,0.533301 0,0.02633 0.0165,0.05496 0.0362,0.06356 0.0197,0.0086 0.12746,0.196165 0.23978,0.416512 0.11232,0.220346 0.24432,0.464315 0.29352,0.542085 0.0492,0.07777 0.10352,0.172984 0.12092,0.211874 0.0575,0.128633 0.73234,1.126647 0.79944,1.182357 0.0363,0.03006 0.0656,0.08418 0.0656,0.119889 0,0.03571 0.018,0.06459 0.0398,0.06459 0.0218,0 0.0905,0.07152 0.15296,0.158647 0.2691,0.375353 0.85239,0.995848 1.26866,1.349788 0.13719,0.116654 0.27267,0.234787 0.30127,0.262517 0.0286,0.02773 0.18705,0.149451 0.35192,0.270784 l 0.29972,0.220659 h -2.30477 c -1.89666,0 -2.35321,-0.01262 -2.57658,-0.0708 -0.14929,-0.03888 -0.3073,-0.07066 -0.3514,-0.0708 -0.0441,-1.6e-4 -0.14078,-0.03207 -0.21498,-0.0708 -0.0743,-0.03873 -0.16222,-0.07028 -0.19482,-0.07028 -0.0822,0 -0.8272,-0.317751 -0.8723,-0.372071 -0.013,-0.01561 -0.10818,-0.07064 -0.21187,-0.121956 -0.22166,-0.109705 -0.46501,-0.268724 -0.48731,-0.318844 -0.009,-0.01944 -0.0349,-0.03566 -0.0584,-0.03566 -0.042,0 -0.30801,-0.193546 -0.58343,-0.424781 -0.36988,-0.310533 -1.06374,-1.037941 -1.34565,-1.410766 -0.0648,-0.08571 -0.15511,-0.195353 -0.20051,-0.243913 -0.0454,-0.04856 -0.0822,-0.108015 -0.0822,-0.131775 0,-0.02377 -0.0157,-0.05031 -0.0351,-0.05891 -0.0516,-0.02294 -0.24753,-0.310416 -0.24753,-0.363285 0,-0.02482 -0.0163,-0.05238 -0.0357,-0.06098 -0.0382,-0.01698 -0.24753,-0.304024 -0.24753,-0.339514 0,-0.01187 -0.0915,-0.177334 -0.20361,-0.367419 -0.20134,-0.341504 -0.49232,-0.924636 -0.68988,-1.382345 -0.0559,-0.129616 -0.13058,-0.299468 -0.16588,-0.377238 -0.18851,-0.414609 -0.63717,-1.765909 -0.63717,-1.919259 0,-0.0431 -0.0189,-0.0902 -0.0419,-0.10439 -0.023,-0.0142 -0.0552,-0.10559 -0.0718,-0.20309 -0.0166,-0.0975 -0.0598,-0.30438 -0.0961,-0.45992 -0.0363,-0.15554 -0.10106,-0.45252 -0.14366,-0.65991 -0.0426,-0.20738 -0.0987,-0.4769 -0.12505,-0.59893 -0.0262,-0.12202 -0.0654,-0.39739 -0.0873,-0.61236 -0.022,-0.21498 -0.0654,-0.58215 -0.0966,-0.81546 -0.0764,-0.57044 -0.0764,-3.67115 0,-4.2416 0.0313,-0.23331 0.0747,-0.60048 0.0966,-0.81545 0.0219,-0.21498 0.0622,-0.49034 0.0894,-0.61237 0.0272,-0.12202 0.0721,-0.33853 0.0997,-0.4811 0.14089,-0.72652 0.26619,-1.25974 0.39894,-1.69706 0.0432,-0.14258 0.0995,-0.34382 0.12506,-0.44752 0.0256,-0.10369 0.0666,-0.20894 0.091,-0.23357 0.0244,-0.0246 0.0444,-0.0757 0.0444,-0.11369 0,-0.0669 0.21557,-0.66071 0.36174,-0.99632 0.0396,-0.0907 0.10167,-0.23357 0.13797,-0.31782 0.12174,-0.28254 0.22117,-0.5062 0.26097,-0.58756 0.13392,-0.27369 0.4188,-0.79709 0.52658,-0.96686 0.0696,-0.10966 0.12661,-0.21003 0.12661,-0.22273 0,-0.0388 0.4921,-0.75525 0.5302,-0.77205 0.0197,-0.009 0.0357,-0.0372 0.0357,-0.063 0,-0.0259 0.0795,-0.14534 0.17673,-0.26561 0.0972,-0.12027 0.21888,-0.27162 0.27078,-0.33642 0.14546,-0.1818 1.13359,-1.18132 1.16789,-1.18132 0.0167,0 0.0894,-0.0545 0.16175,-0.12144 0.20452,-0.18937 0.77327,-0.58549 0.84077,-0.58549 0.0334,0 0.0675,-0.017 0.0765,-0.0382 0.009,-0.0212 0.18536,-0.11941 0.39275,-0.21808 0.20739,-0.0987 0.43349,-0.20877 0.50229,-0.24443 0.0688,-0.0357 0.16536,-0.0646 0.21446,-0.0646 0.0492,0 0.11021,-0.0213 0.13591,-0.047 0.0257,-0.0257 0.15206,-0.0679 0.2806,-0.094 0.12855,-0.0261 0.34476,-0.0699 0.48059,-0.0971 0.15795,-0.0316 1.34067,-0.0529 2.4815,-0.0589 z m 6.68952,0.01 c 0.62356,0.0189 1.40683,0.17062 1.81281,0.3762 0.0447,0.0226 0.25047,0.12161 0.45785,0.22014 0.20739,0.0985 0.38426,0.19687 0.39326,0.21808 0.009,0.0212 0.0435,0.0382 0.078,0.0382 0.0667,0 0.81304,0.53152 0.90124,0.64182 0.0288,0.036 0.0696,0.0651 0.091,0.0651 0.0214,0 0.27335,0.23936 0.56017,0.53175 0.53767,0.54811 0.61364,0.63295 0.85266,0.95343 0.0774,0.10369 0.1563,0.19552 0.1757,0.20412 0.0195,0.009 0.0357,0.0361 0.0357,0.061 0,0.0249 0.0422,0.0906 0.0941,0.14625 0.0518,0.0556 0.12067,0.16068 0.15297,0.23358 0.0323,0.0729 0.0754,0.13229 0.0956,0.13229 0.0203,0 0.0575,0.0481 0.0827,0.10645 0.0459,0.10612 0.0607,0.13146 0.28318,0.48317 0.10986,0.1737 0.63834,1.22594 0.78083,1.55495 0.0337,0.0778 0.12554,0.28487 0.20464,0.45992 0.0791,0.17505 0.14418,0.35955 0.14418,0.4098 0,0.0502 0.0194,0.1033 0.0429,0.11782 0.0231,0.0145 0.0316,0.0686 0.0181,0.1204 -0.0138,0.0527 -0.001,0.094 0.0279,0.094 0.0289,0 0.0527,0.0427 0.0527,0.0946 0,0.0519 0.0191,0.094 0.0429,0.094 0.0239,0 0.0653,0.0903 0.092,0.20051 0.0267,0.11017 0.0834,0.32764 0.12609,0.48317 0.11532,0.4203 0.2129,0.81864 0.2651,1.08366 0.0256,0.12961 0.0659,0.29987 0.0894,0.37827 0.0235,0.0784 0.0621,0.26935 0.0863,0.42426 0.0242,0.15492 0.0662,0.41958 0.0935,0.58808 0.18684,1.15163 0.21132,1.53471 0.21032,3.27577 -9e-4,1.11773 -0.0219,1.87913 -0.0584,2.1208 -0.0314,0.20739 -0.0763,0.55657 -0.0997,0.77566 -0.0234,0.2191 -0.0638,0.49498 -0.0899,0.61289 -0.0261,0.1179 -0.0716,0.34159 -0.10077,0.49712 -0.14704,0.7842 -0.2033,1.02349 -0.39377,1.67329 -0.0418,0.14257 -0.0889,0.32813 -0.1049,0.41238 -0.0314,0.165 -0.13019,0.20439 -0.17519,0.0703 -0.0257,-0.0764 -0.0769,-0.16346 -0.19533,-0.3328 -0.0259,-0.0371 -0.18994,-0.21554 -0.36484,-0.39636 l -0.31833,-0.32866 0.0724,-0.28991 c 0.37793,-1.51971 0.46466,-2.07645 0.57258,-3.67161 0.0739,-1.09139 0.074,-1.24179 0,-2.33319 -0.10364,-1.52873 -0.23238,-2.35402 -0.56793,-3.64112 -0.0939,-0.36023 -0.44164,-1.37967 -0.52554,-1.54047 -0.0381,-0.0731 -0.0696,-0.15948 -0.0698,-0.19224 -2e-4,-0.0328 -0.021,-0.0966 -0.046,-0.14159 -0.025,-0.045 -0.12081,-0.2515 -0.21291,-0.45889 -0.0921,-0.20739 -0.18858,-0.41495 -0.21498,-0.46147 -0.0264,-0.0465 -0.11335,-0.20557 -0.19275,-0.35347 -0.0794,-0.1479 -0.21617,-0.37862 -0.30437,-0.51263 -0.0882,-0.13401 -0.1602,-0.26655 -0.1602,-0.29456 0,-0.028 -0.0205,-0.0512 -0.045,-0.0512 -0.0245,0 -0.0935,-0.0818 -0.15348,-0.18241 -0.06,-0.10059 -0.19363,-0.28628 -0.29714,-0.41238 -0.32086,-0.3909 -1.3407,-1.38441 -1.4211,-1.38441 -0.0118,0 -0.0996,-0.0609 -0.19534,-0.1354 -0.0957,-0.0745 -0.2483,-0.17486 -0.339,-0.22324 -0.0907,-0.0484 -0.19674,-0.11118 -0.23564,-0.13952 -0.0389,-0.0283 -0.18764,-0.1 -0.33021,-0.15917 -0.35491,-0.14727 -0.39671,-0.18534 -0.31161,-0.2806 0.14873,-0.16652 0.0938,-0.39078 -0.11679,-0.47801 -0.10699,-0.0443 -0.15587,-0.0457 -0.19637,-0.005 -0.0405,0.0405 -0.018,0.0543 0.091,0.0543 0.21948,0 0.2848,0.10731 0.1881,0.31006 -0.0992,0.20796 -0.16576,0.23207 -0.38602,0.14004 -0.17,-0.071 -0.17394,-0.0779 -0.0966,-0.16329 0.0478,-0.0528 0.0616,-0.10082 0.0341,-0.11783 -0.0255,-0.0158 -0.0919,0.0288 -0.14728,0.0992 -0.0813,0.10337 -0.11595,0.11827 -0.18035,0.077 -0.0986,-0.0632 -0.086,-0.48193 0.017,-0.56224 0.0705,-0.0549 0.0436,-0.11317 -0.0522,-0.11317 -0.0342,0 -0.0707,0.1043 -0.0899,0.25839 -0.0375,0.30015 -0.0863,0.34928 -0.22893,0.23047 -0.0567,-0.0472 -0.0763,-0.0555 -0.0439,-0.0186 0.0324,0.0369 0.0589,0.0812 0.0589,0.0987 0,0.0174 -0.18842,0.0214 -0.41858,0.008 -0.53073,-0.0303 -1.26192,0.0989 -1.91254,0.33797 -0.31911,0.11724 -1.03664,0.50845 -1.29966,0.70848 -0.15535,0.11815 -0.29379,0.21446 -0.30799,0.21446 -0.0669,0 -1.07303,1.05645 -1.32447,1.39061 -0.2741,0.36427 -0.67327,0.96208 -0.73897,1.10743 -0.0176,0.0389 -0.076,0.14491 -0.13023,0.23564 -0.16594,0.27798 -0.27305,0.49781 -0.63149,1.29657 -0.0349,0.0778 -0.10776,0.2682 -0.16226,0.42374 -0.0545,0.15554 -0.11689,0.32539 -0.13849,0.37724 -0.0475,0.11385 -0.21805,0.68976 -0.39791,1.34359 -0.14955,0.54364 -0.28415,1.2703 -0.36225,1.95595 -0.0266,0.23331 -0.0723,0.54058 -0.10129,0.68316 -0.0712,0.34963 -0.0712,3.37417 0,3.72381 0.029,0.14257 0.0742,0.44985 0.10025,0.68316 0.10075,0.90017 0.33594,1.96978 0.64234,2.9223 0.12841,0.39916 0.36187,1.04496 0.44287,1.22525 0.35504,0.790083 0.76852,1.571203 1.05885,2.00091 0.30798,0.455825 0.60851,0.851111 0.64751,0.851111 0.0209,0 0.0382,0.02135 0.0382,0.04754 0,0.142681 1.46812,1.443698 1.74356,1.545126 0.0389,0.01432 0.0816,0.03838 0.0946,0.05323 0.0281,0.03218 0.56725,0.297375 0.80098,0.393775 0.48143,0.198571 1.57318,0.392475 1.93735,0.344165 0.24737,-0.03282 0.37207,-7.09e-4 0.37207,0.0956 0,0.03611 0.0174,0.06563 0.0382,0.06563 0.0208,0 0.0842,0.144608 0.14108,0.321428 0.0797,0.247402 0.10387,0.435711 0.10387,0.817004 0,0.272514 -0.0142,0.509303 -0.0315,0.526583 h -5.2e-4 c -0.0173,0.01728 -0.35338,0.03152 -0.74673,0.03152 -0.7637,0 -1.34729,-0.08937 -1.86138,-0.285254 -0.14258,-0.05433 -0.31192,-0.116506 -0.37672,-0.137976 -0.10705,-0.03547 -0.5995,-0.284986 -0.79324,-0.402043 -0.60539,-0.365761 -1.05494,-0.729531 -1.65933,-1.343587 -0.43526,-0.442225 -1.17667,-1.357645 -1.17667,-1.452625 0,-0.02573 -0.0163,-0.05393 -0.0357,-0.06253 -0.0537,-0.02385 -0.24702,-0.31162 -0.24702,-0.36742 0,-0.02697 -0.0195,-0.04909 -0.0429,-0.04909 -0.0234,0 -0.0656,-0.05842 -0.0941,-0.129708 -0.0285,-0.07129 -0.0932,-0.193015 -0.14366,-0.270785 -0.1967,-0.303134 -0.8506,-1.678032 -0.8506,-1.788521 0,-0.03584 -0.0175,-0.07253 -0.0387,-0.08113 -0.0212,-0.0086 -0.0753,-0.121532 -0.11989,-0.251143 -0.2812,-0.81795 -0.51356,-1.5346 -0.55036,-1.69706 -0.0235,-0.10369 -0.0744,-0.31575 -0.11317,-0.47129 -0.0388,-0.15554 -0.0933,-0.3887 -0.12144,-0.51831 -0.0281,-0.12962 -0.0736,-0.33745 -0.10077,-0.46147 -0.0272,-0.12403 -0.0674,-0.35718 -0.0894,-0.51832 -0.022,-0.16113 -0.0606,-0.43094 -0.0858,-0.59944 -0.13316,-0.88833 -0.17105,-1.52961 -0.17105,-2.89853 0,-1.36893 0.0379,-2.01021 0.17105,-2.89854 0.0253,-0.1685 0.0638,-0.43831 0.0858,-0.59944 0.051,-0.37345 0.18356,-0.97558 0.44907,-2.04019 0.0355,-0.14258 0.0902,-0.36544 0.12144,-0.49506 0.0312,-0.12961 0.0696,-0.24593 0.0858,-0.2589 0.0162,-0.013 0.10122,-0.23583 0.18862,-0.49506 0.0874,-0.25923 0.21996,-0.60512 0.29456,-0.76894 0.0746,-0.16383 0.13539,-0.31532 0.13539,-0.33642 0,-0.0766 0.86635,-1.73192 0.93845,-1.79317 0.0417,-0.0354 0.13991,-0.1986 0.19171,-0.31833 0.0253,-0.0583 0.068,-0.10593 0.0946,-0.10593 0.0266,0 0.0481,-0.0221 0.0481,-0.0491 0,-0.0429 0.16858,-0.3102 0.23668,-0.37518 0.0136,-0.013 0.14051,-0.172 0.28215,-0.35346 0.32901,-0.42149 1.16541,-1.26107 1.53169,-1.53789 0.4127,-0.31193 0.89633,-0.61356 1.27228,-0.79272 0.18146,-0.0865 0.38647,-0.18589 0.45527,-0.22117 0.0688,-0.0353 0.15932,-0.0641 0.20102,-0.0641 0.0417,0 0.11703,-0.0258 0.16743,-0.0574 0.072,-0.045 0.12577,-0.045 0.25011,0 0.22476,0.0813 0.26139,0.0742 0.44184,-0.0842 0.0886,-0.0778 0.20381,-0.14108 0.25631,-0.14108 0.10404,0 0.0965,0.0233 -0.0837,0.26355 -0.0602,0.0802 -0.10903,0.18293 -0.10903,0.22841 0,0.0789 0.25461,0.35605 0.32711,0.35605 0.0374,0 0.46656,-0.53787 0.50126,-0.62839 0.0116,-0.0303 -0.0272,-0.0849 -0.0858,-0.12144 -0.0976,-0.0608 -0.10106,-0.0598 -0.0419,0.0119 0.0566,0.0685 0.0396,0.11087 -0.13643,0.339 -0.24927,0.3231 -0.26614,0.33346 -0.37879,0.23151 -0.12791,-0.11575 -0.11405,-0.25662 0.0444,-0.44648 0.11236,-0.13459 0.18402,-0.17116 0.41238,-0.21033 0.15248,-0.0262 0.34302,-0.0347 0.55087,-0.0284 z m -1.45521,0.11007 c 0.0689,-0.005 0.0871,0.0223 0.0517,0.0796 -0.0377,0.061 -0.19799,0.0667 -0.23409,0.008 -0.0143,-0.0232 0.0289,-0.0559 0.0966,-0.0729 0.0341,-0.009 0.0628,-0.0135 0.0858,-0.015 z m 1.71308,0.60306 c -0.10844,-0.0141 -0.19884,0.0456 -0.26872,0.17829 -0.0472,0.0896 -0.0441,0.12964 0.0176,0.22376 0.0413,0.0631 0.0956,0.11472 0.12092,0.11472 0.077,0 0.0517,0.10592 -0.0517,0.21601 -0.0537,0.0573 -0.0799,0.11506 -0.0579,0.12867 0.022,0.0136 0.163,-0.12703 0.31316,-0.31264 l 0.27285,-0.33745 -0.13281,-0.10645 c -0.0769,-0.0616 -0.14836,-0.0965 -0.21342,-0.10491 z m 0.0455,0.0677 c 0.0164,0.004 0.0338,0.0113 0.0543,0.0222 0.13017,0.0696 0.12458,0.14077 -0.0238,0.30076 -0.1168,0.126 -0.12648,0.12842 -0.21188,0.0512 -0.11801,-0.10676 -0.11303,-0.16966 0.0238,-0.29817 0.0704,-0.0661 0.10846,-0.0877 0.15762,-0.076 z m -21.9258,2.38125 c 5.39143,0 6.19496,0.009 6.19496,0.0687 0,0.0377 -0.0551,0.14917 -0.12247,0.24753 -0.0674,0.0984 -0.14241,0.22152 -0.16691,0.27337 -0.0245,0.0519 -0.11591,0.22119 -0.20361,0.37672 -0.26899,0.47728 -0.6501,1.2927 -0.84801,1.81488 -0.0442,0.11665 -0.11048,0.27181 -0.14728,0.3452 -0.0369,0.0734 -0.0672,0.16305 -0.0672,0.19896 0,0.0359 -0.0286,0.13501 -0.0641,0.22014 -0.25094,0.60178 -0.64813,2.1077 -0.78033,2.95899 -0.0221,0.14258 -0.0558,0.31744 -0.0744,0.38861 -0.0774,0.29592 -0.17075,1.22107 -0.24496,2.42517 -0.0737,1.19661 -0.0736,1.36861 -5.1e-4,2.59209 0.0885,1.48179 0.15699,2.04878 0.38653,3.19619 0.11322,0.566 0.10474,0.52885 0.30748,1.34307 0.029,0.11665 0.0711,0.2467 0.0935,0.28887 0.0224,0.0422 0.0555,0.15677 0.0739,0.25476 0.0184,0.098 0.062,0.23303 0.0971,0.30024 0.0351,0.0672 0.0639,0.15708 0.0641,0.19948 2e-4,0.0424 0.0321,0.13762 0.0708,0.21187 0.0387,0.0742 0.0707,0.183 0.0708,0.241328 2e-4,0.05833 0.0195,0.105936 0.0434,0.105936 0.0239,0 0.0585,0.06881 0.077,0.152963 0.0184,0.08415 0.0619,0.216685 0.0961,0.294555 0.0342,0.07787 0.12129,0.279347 0.19379,0.447518 0.18956,0.439508 0.84757,1.732752 0.91157,1.791622 0.0614,0.05641 0.23357,0.388689 0.23357,0.450619 0,0.05888 -0.82134,0.06789 -6.13916,0.06718 -6.45254,-8.65e-4 -6.57422,-0.0048 -7.15253,-0.209806 -0.30798,-0.109165 -0.848,-0.372699 -0.84801,-0.413928 0,-0.01944 -0.0221,-0.03566 -0.0491,-0.03566 -0.047,0 -0.20835,-0.105652 -0.46664,-0.305408 -0.18296,-0.141504 -0.90803,-0.87545 -1.04076,-1.053682 -0.0644,-0.08649 -0.13857,-0.181704 -0.16537,-0.211874 -0.0525,-0.05913 -0.48139,-0.698913 -0.57309,-0.855245 -0.10863,-0.1851 -0.65977,-1.323588 -0.74208,-1.532718 -0.0459,-0.11666 -0.11304,-0.28178 -0.14935,-0.36691 -0.0362,-0.0851 -0.0656,-0.19245 -0.0656,-0.23823 0,-0.0458 -0.02,-0.10301 -0.0444,-0.12764 -0.0244,-0.0246 -0.0662,-0.12988 -0.0925,-0.23357 -0.0263,-0.1037 -0.0816,-0.30494 -0.12299,-0.44752 -0.14814,-0.50977 -0.30179,-1.2165 -0.39429,-1.81488 -0.15705,-1.01561 -0.17105,-1.23857 -0.17105,-2.78071 0,-1.04149 0.021,-1.75106 0.0599,-2.02675 0.0976,-0.69192 0.15803,-1.06434 0.22892,-1.41386 0.0368,-0.18147 0.0867,-0.4313 0.11059,-0.55501 0.041,-0.21232 0.0684,-0.30972 0.21602,-0.76481 0.0336,-0.10369 0.0751,-0.25711 0.092,-0.34106 0.0169,-0.084 0.05,-0.16505 0.0739,-0.17984 0.0239,-0.0148 0.0439,-0.0673 0.0439,-0.11679 0,-0.0494 0.0293,-0.1593 0.0656,-0.24443 0.0363,-0.0851 0.10355,-0.25024 0.14935,-0.3669 0.31422,-0.79998 1.07614,-2.14767 1.47846,-2.61535 0.28941,-0.33644 1.02158,-1.05776 1.07538,-1.05936 0.0324,-9.6e-4 0.0589,-0.0221 0.0589,-0.047 0,-0.0448 0.65421,-0.44523 0.91105,-0.55759 0.0732,-0.032 0.15273,-0.0458 0.17673,-0.031 0.024,0.0148 0.0434,0.004 0.0434,-0.0232 0,-0.0275 0.0287,-0.0501 0.0636,-0.0501 0.0349,0 0.12943,-0.0325 0.21033,-0.0729 0.0809,-0.0403 0.27587,-0.0753 0.43305,-0.0775 0.15718,-0.002 0.29677,-0.0222 0.31057,-0.0444 0.0137,-0.0222 2.81293,-0.0408 6.22029,-0.0408 z m 21.28863,0.0119 c 0.0987,-0.004 0.1874,-0.002 0.25941,0.006 0.51236,0.0576 0.82613,0.11765 0.87643,0.16795 0.0277,0.0277 0.0872,0.0506 0.1323,0.0506 0.11204,0 0.60613,0.25863 1.0175,0.53279 0.37092,0.2472 0.9763,0.81492 1.26659,1.18752 0.10098,0.12962 0.19423,0.24593 0.20723,0.2589 0.071,0.071 0.23564,0.33314 0.23564,0.37517 0,0.027 0.018,0.0491 0.0398,0.0491 0.0218,0 0.0647,0.0476 0.0951,0.10594 0.0304,0.0583 0.11857,0.21248 0.19637,0.3421 0.0778,0.12962 0.25936,0.47961 0.4036,0.77773 0.14424,0.29811 0.29279,0.59833 0.32969,0.66714 0.0369,0.0688 0.0672,0.16532 0.0672,0.21446 0,0.0491 0.0178,0.10921 0.0398,0.13384 0.0613,0.0686 0.52555,1.57286 0.52555,1.70274 0,0.0375 0.0292,0.16786 0.0651,0.28939 0.0839,0.28371 0.17178,0.74498 0.22118,1.16323 0.0215,0.18147 0.0593,0.47845 0.0842,0.65991 0.12485,0.91122 0.10126,3.35407 -0.0408,4.21835 -0.0277,0.1685 -0.0834,0.50821 -0.12351,0.75447 -0.0401,0.24627 -0.0934,0.53245 -0.11886,0.63614 -0.0256,0.10369 -0.0662,0.28384 -0.0904,0.40049 -0.0242,0.11666 -0.0656,0.26541 -0.092,0.33022 l -0.0481,0.11782 -3.64008,-0.0139 c -2.00203,-0.008 -3.65617,-0.0306 -3.67627,-0.0506 -0.0201,-0.0201 -0.006,-0.14094 0.031,-0.26872 0.39378,-1.34969 0.59819,-4.05409 0.43253,-5.72316 -0.0888,-0.89482 -0.19035,-1.6348 -0.28525,-2.0743 -0.0364,-0.1685 -0.0768,-0.35893 -0.0894,-0.42374 -0.12123,-0.6238 -0.55052,-2.01354 -0.77153,-2.49804 -0.0414,-0.0907 -0.1063,-0.23948 -0.1447,-0.33021 -0.0384,-0.0907 -0.0989,-0.2211 -0.13384,-0.28991 -0.0349,-0.0688 -0.0636,-0.15913 -0.0636,-0.2005 0,-0.0414 -0.0167,-0.0749 -0.0372,-0.0749 -0.0205,0 -0.0955,-0.12225 -0.16691,-0.2713 -0.0714,-0.14907 -0.17088,-0.33462 -0.22118,-0.41239 -0.0502,-0.0778 -0.11172,-0.18706 -0.13642,-0.24287 -0.0247,-0.0558 -0.0676,-0.11529 -0.0951,-0.1323 -0.0275,-0.017 -0.0501,-0.0468 -0.0501,-0.0661 0,-0.0887 0.86054,-0.99632 0.94464,-0.99632 0.025,0 0.0455,-0.0163 0.0455,-0.0367 0,-0.046 0.45214,-0.38757 0.51314,-0.38757 0.0244,0 0.051,-0.018 0.06,-0.0403 0.0218,-0.0562 0.67282,-0.35794 0.9586,-0.44442 0.29523,-0.0893 0.68111,-0.1515 0.9772,-0.1633 z m -4.28243,3.31608 c 0.053,0.0211 0.41439,0.75071 0.56948,1.1498 0.0453,0.11666 0.10155,0.24964 0.12505,0.29508 0.0357,0.069 0.20949,0.58158 0.41962,1.2392 0.0253,0.0791 0.0668,0.23817 0.092,0.35346 0.0253,0.1153 0.0764,0.34775 0.11369,0.51625 0.0698,0.315 0.12521,0.59709 0.22221,1.1312 0.14502,0.7997 0.22361,2.91483 0.14211,3.84111 -0.0935,1.06306 -0.20612,1.84301 -0.36019,2.49804 -0.0427,0.18146 -0.0934,0.40594 -0.11265,0.49867 -0.0193,0.0927 -0.0504,0.19335 -0.0692,0.22376 -0.0385,0.0623 -2.18273,0.0804 -2.26963,0.0191 -0.055,-0.0388 -0.14367,-0.30387 -0.20877,-0.62373 -0.0237,-0.11666 -0.0629,-0.30761 -0.0873,-0.42427 -0.14514,-0.6931 -0.17099,-0.88418 -0.29508,-2.19159 -0.061,-0.64277 -0.0328,-2.54843 0.0455,-3.06338 0.0276,-0.18146 0.0733,-0.49955 0.1018,-0.70694 0.10199,-0.7431 0.14315,-0.99192 0.18655,-1.13119 0.0242,-0.0778 0.0899,-0.33255 0.14573,-0.56586 0.10088,-0.42162 0.46505,-1.57923 0.55035,-1.74925 0.0246,-0.0489 0.0768,-0.163 0.11628,-0.25373 0.22566,-0.51883 0.52667,-1.07401 0.57257,-1.05575 z m 4.2478,13.1222 c 2.7349,0.001 4.97283,0.0198 4.97283,0.0408 0,0.021 -0.0427,0.0766 -0.0946,0.12351 -0.0519,0.0469 -0.094,0.10737 -0.094,0.13436 0,0.027 0.0701,-0.0189 0.15554,-0.10181 0.0969,-0.0939 0.20327,-0.15038 0.28267,-0.15038 0.127,0 0.1695,0.0626 0.0801,0.11783 -0.0259,0.016 -0.047,0.0508 -0.047,0.077 0,0.0262 0.0353,0.0123 0.0786,-0.031 0.15821,-0.15821 0.53999,-0.0155 0.88729,0.33176 0.14914,0.14914 0.37343,0.44871 0.34623,0.4625 -0.14022,0.0711 -0.20288,0.1209 -0.22118,0.1757 -0.0152,0.0456 0.004,0.041 0.0594,-0.015 0.10601,-0.10601 0.15474,-0.10307 0.21704,0.0134 0.0611,0.11418 -0.0524,0.340626 -0.20877,0.416516 l -0.0982,0.04754 0.0987,0.0031 c 0.0543,0.0018 0.1375,-0.03952 0.185,-0.09198 0.0641,-0.07085 0.0957,-0.08058 0.12248,-0.03721 0.0198,0.03211 0.0383,2.768409 0.0403,6.080766 0.002,3.312356 0.0151,6.052011 0.0289,6.088001 0.0141,0.03675 0.12662,0.07892 0.25631,0.09612 0.12698,0.01684 0.2433,0.05131 0.2589,0.07648 0.0156,0.02517 0.0715,0.04547 0.12402,0.04547 0.11196,0 0.8413,0.329332 0.8413,0.379822 0,0.01894 0.0498,0.04686 0.11007,0.06201 0.0603,0.01514 0.16711,0.08081 0.23771,0.146244 0.0707,0.06543 0.1471,0.118856 0.1695,0.118856 0.0224,0 0.0473,0.01779 0.0563,0.03927 0.009,0.02148 0.16425,0.163856 0.34571,0.31626 0.18146,0.1524 0.38528,0.330975 0.4532,0.396875 0.28113,0.272786 0.71596,0.58814 0.98547,0.715202 0.48012,0.22635 0.61547,0.251718 1.34359,0.252181 0.73425,4.85e-4 0.70695,0.0059 1.27796,-0.241329 0.0817,-0.03537 0.17004,-0.06408 0.19637,-0.06408 0.0263,0 0.0555,-0.01622 0.0641,-0.03566 0.009,-0.01944 0.10043,-0.09283 0.20412,-0.163297 0.10369,-0.07047 0.25348,-0.187306 0.3328,-0.259416 0.0793,-0.07211 0.28923,-0.25839 0.46664,-0.413928 0.1774,-0.155539 0.3457,-0.304516 0.37413,-0.331246 0.13864,-0.130371 0.63942,-0.49351 0.68058,-0.49351 0.0257,0 0.0539,-0.0157 0.0625,-0.03514 0.0244,-0.05482 0.58661,-0.315259 0.93483,-0.433049 0.17704,-0.05989 0.97648,-0.187669 1.19011,-0.190169 l 0.12971,-0.0015 v 0.683679 0.683162 h -0.15348 c -0.19323,-1.56e-4 -0.75374,0.12601 -1.00149,0.22531 -0.10369,0.04156 -0.27972,0.134879 -0.39119,0.207739 -0.11148,0.07287 -0.22094,0.132808 -0.2434,0.132808 -0.0225,0 -0.0482,0.0157 -0.0568,0.03514 -0.009,0.01944 -0.11617,0.116581 -0.23926,0.215491 -0.12309,0.09891 -0.29619,0.247986 -0.38447,0.331246 -0.0883,0.08325 -0.2605,0.235496 -0.38293,0.338481 -0.12242,0.10299 -0.2463,0.209351 -0.27543,0.236161 -0.1287,0.118436 -0.73418,0.49128 -0.94878,0.58446 -0.12962,0.05628 -0.28015,0.124215 -0.33435,0.150895 -0.0541,0.02663 -0.26554,0.08776 -0.47025,0.135909 h -10e-4 c -0.29745,0.06986 -0.51952,0.08512 -1.10278,0.0739 -0.93762,-0.01803 -1.29833,-0.105845 -2.00298,-0.485242 -0.0778,-0.04187 -0.22111,-0.115414 -0.31832,-0.163814 -0.0972,-0.0484 -0.17674,-0.109039 -0.17674,-0.134359 0,-0.02531 -0.0285,-0.04599 -0.0636,-0.04599 -0.035,0 -0.11248,-0.06331 -0.17208,-0.141077 -0.0596,-0.07777 -0.13445,-0.141593 -0.1664,-0.141593 -0.0319,0 -0.18572,-0.121727 -0.3421,-0.270785 -0.46433,-0.442606 -0.75022,-0.68813 -0.84232,-0.72347 -0.0476,-0.01828 -0.12907,-0.07367 -0.18087,-0.12299 -0.0519,-0.04932 -0.24279,-0.141191 -0.42426,-0.204121 -0.18146,-0.06292 -0.34402,-0.134257 -0.36122,-0.158647 -0.0172,-0.02438 -0.26487,-0.05387 -0.55035,-0.06563 -0.88804,-0.03659 -1.70497,0.233126 -2.27428,0.750858 -0.0674,0.06131 -0.22698,0.199793 -0.35399,0.307992 -0.12701,0.108198 -0.30074,0.262358 -0.38654,0.342098 -0.0859,0.07974 -0.16671,0.144694 -0.17931,0.144694 -0.0126,0 -0.0695,0.04761 -0.12661,0.105937 -0.1351,0.138029 -0.39277,0.318326 -0.45527,0.318326 -0.0269,0 -0.0491,0.01712 -0.0491,0.03824 0,0.04585 -0.67536,0.386023 -0.76636,0.386023 -0.0349,0 -0.0845,0.02087 -0.11007,0.04651 -0.0256,0.02564 -0.25752,0.09118 -0.51573,0.145727 -0.39811,0.08412 -0.57339,0.09549 -1.15291,0.07441 -0.64614,-0.0235 -0.86591,-0.06126 -1.3689,-0.234611 -0.56719,-0.195483 -1.38577,-0.773109 -2.15647,-1.521354 -0.0855,-0.08297 -0.2445,-0.210837 -0.35346,-0.284737 -0.10897,-0.0739 -0.20869,-0.145783 -0.22169,-0.159163 -0.0804,-0.08307 -0.63933,-0.306749 -0.95395,-0.381889 -0.8816,-0.210563 -1.80083,-0.0062 -2.55747,0.568441 -0.15553,0.118109 -0.31617,0.246364 -0.35657,0.285253 -0.0404,0.03888 -0.20867,0.187635 -0.37413,0.330213 -0.16547,0.142577 -0.33913,0.296211 -0.38603,0.341581 -0.0469,0.04536 -0.10639,0.08268 -0.13229,0.08268 -0.0259,0 -0.0475,0.01741 -0.0475,0.03876 0,0.06856 -0.6519,0.474161 -1.00097,0.622701 -0.4326,0.184087 -1.0803,0.328145 -1.47433,0.328145 h -0.30799 l 0.0134,-0.671794 0.0129,-0.671276 0.37724,-0.03721 c 0.20738,-0.02028 0.49356,-0.07982 0.63614,-0.132809 0.26127,-0.09711 0.71026,-0.322175 0.75396,-0.377755 0.013,-0.0165 0.12979,-0.109505 0.25941,-0.206705 0.12961,-0.0972 0.29297,-0.237686 0.36277,-0.312126 0.0698,-0.07444 0.1363,-0.135392 0.1478,-0.135392 0.0115,0 0.13431,-0.107366 0.27336,-0.238745 0.13904,-0.131378 0.31111,-0.274067 0.38241,-0.316777 0.0713,-0.04271 0.12971,-0.09439 0.12971,-0.114722 0,-0.02033 0.03,-0.03669 0.0667,-0.03669 0.0367,0 0.0737,-0.01779 0.0827,-0.03927 0.0195,-0.0485 0.54703,-0.358118 0.67541,-0.396358 0.0519,-0.01545 0.21089,-0.0723 0.35347,-0.126607 0.27923,-0.10637 1.06044,-0.238745 1.41077,-0.239262 0.61069,-8.81e-4 1.35056,0.164708 1.91202,0.428397 0.36371,0.170815 1.07894,0.669935 1.37873,0.962216 0.21449,0.209119 0.38471,0.358593 0.64802,0.567407 0.12962,0.102792 0.24642,0.198573 0.25942,0.213423 0.013,0.01486 0.0557,0.04165 0.0946,0.05943 0.0389,0.01778 0.14043,0.07488 0.22583,0.126608 0.38769,0.234878 0.70262,0.301957 1.42369,0.303857 0.55052,0.0014 0.72896,-0.0153 0.9188,-0.08527 0.35824,-0.132048 0.83358,-0.377234 0.85938,-0.443384 0.0126,-0.03241 0.0428,-0.05891 0.0672,-0.05891 0.0244,0 0.0971,-0.05683 0.16175,-0.126607 l 0.11782,-0.127124 -0.014,-4.432805 c -0.015,-4.835412 0.005,-4.438147 -0.26562,-5.140254 -0.1675,-0.434029 -0.57309,-0.938512 -1.09967,-1.366842 -0.13428,-0.109228 -0.5191,-0.306441 -0.5979,-0.306441 -0.0296,0 -0.0537,-0.01638 -0.0537,-0.03617 0,-0.09895 -0.5512,-0.173154 -1.46554,-0.197404 -0.75875,-0.02012 -0.99092,-0.04127 -1.06092,-0.09612 -0.1755,-0.137556 -0.29995,-0.260403 -0.30076,-0.296623 -4.4e-4,-0.02027 0.92724,-0.03055 2.06138,-0.02325 l 2.06189,0.01292 0.32091,0.16123 c 0.32953,0.16534 0.66493,0.484303 0.81235,0.772563 0.20985,0.410012 0.20912,0.39436 0.20412,4.062284 -0.003,1.918314 -0.004,3.647203 -0.002,3.841626 0.001,0.194424 0.004,0.836002 0.005,1.425753 0.001,0.652943 0.0199,1.072286 0.0475,1.072286 0.0249,0 0.0828,-0.0396 0.12919,-0.08785 0.13277,-0.138138 0.86411,-0.665959 0.92501,-0.667659 0.0302,-8.2e-4 0.0956,-0.03222 0.14521,-0.06976 0.0883,-0.06649 0.0902,-0.185133 0.0796,-4.605921 -0.0103,-4.27655 -0.016,-4.554886 -0.0992,-4.843632 -0.14746,-0.511453 -0.20239,-0.659908 -0.24339,-0.659908 -0.0215,0 -0.0393,-0.02779 -0.0393,-0.0615 0,-0.152591 -0.62329,-0.865705 -0.99684,-1.140499 -0.14074,-0.103533 -0.49507,-0.279852 -0.78962,-0.392741 l -0.31109,-0.118855 -2.76779,-0.01809 -2.76779,-0.01809 -0.0951,-0.133842 c -0.0525,-0.07379 -0.0956,-0.157635 -0.0956,-0.186035 0,-0.0284 -0.0209,-0.05168 -0.046,-0.05168 -0.0248,0 -0.0329,-0.03243 -0.0176,-0.07235 0.0248,-0.06472 0.42871,-0.07089 3.71037,-0.05684 3.36789,0.01441 3.69975,0.02257 3.88814,0.09767 0.38012,0.151525 0.54051,0.252594 0.79788,0.502295 0.1622,0.157369 0.40227,0.596794 0.46147,0.844393 0.0507,0.21224 0.0636,1.280013 0.0646,5.43481 l 0.002,5.170227 0.24753,-0.02377 c 0.1361,-0.01313 0.32168,-0.03633 0.41238,-0.05168 0.17567,-0.02972 0.26302,-0.03885 0.50694,-0.05271 l 0.15297,-0.0088 v -5.12786 c 0,-4.854653 -0.005,-5.149921 -0.0894,-5.536096 -0.13361,-0.611414 -0.41545,-1.139293 -0.83354,-1.560112 -0.30571,-0.30769 -0.84273,-0.6904 -0.96894,-0.6904 -0.0258,0 -0.0933,-0.0255 -0.14986,-0.0568 -0.0566,-0.0314 -0.24078,-0.0936 -0.40928,-0.13849 -0.27897,-0.0743 -0.67199,-0.0823 -4.39663,-0.0847 l -4.09071,-0.003 -0.0925,-0.21601 c -0.0509,-0.1188 -0.0925,-0.22545 -0.0925,-0.23667 0,-0.0112 2.23742,-0.0194 4.97231,-0.0181 z m 5.6224,0.33073 c -0.006,2.8e-4 -0.0142,0.009 -0.0258,0.0264 -0.019,0.0281 -0.0774,0.075 -0.12919,0.10439 -0.0699,0.0396 -0.0754,0.0542 -0.0212,0.0553 0.0835,0.002 0.18652,-0.0879 0.18552,-0.16123 -2e-4,-0.0165 -0.003,-0.0251 -0.009,-0.0248 z m 0.25942,0.14004 c -0.0408,0 -0.2593,0.21978 -0.38706,0.38913 -0.0359,0.0477 -0.0419,0.0822 -0.0139,0.0822 0.0267,0 0.13746,-0.10603 0.24598,-0.23565 0.10853,-0.12961 0.17823,-0.23564 0.15503,-0.23564 z m -0.85112,0 c -0.0626,0 -0.19947,0.13147 -0.19947,0.19172 v 5.2e-4 c 0,0.0562 0.002,0.0548 0.13695,-0.0791 0.0624,-0.0621 0.0907,-0.11317 0.0625,-0.11317 z m 0.29818,0.1416 c -0.0404,0 -0.0734,0.0211 -0.0734,0.047 0,0.0259 0.02,0.047 0.0444,0.047 0.0244,0 0.0574,-0.0211 0.0734,-0.047 0.0161,-0.0259 -0.004,-0.047 -0.0444,-0.047 z m -0.0579,0.19223 c -0.0231,3e-4 -0.0709,0.0229 -0.13075,0.0682 -0.0732,0.0554 -0.0768,0.0692 -0.0176,0.0692 0.0407,0 0.10051,-0.0319 0.13281,-0.0708 0.0373,-0.045 0.0386,-0.067 0.0155,-0.0667 z m 1.00614,0.0243 c -0.0127,-0.002 -0.0427,0.0233 -0.091,0.0739 -0.0628,0.0658 -0.0665,0.0863 -0.0165,0.0863 0.0361,0 0.0787,-0.0344 0.0951,-0.077 0.0206,-0.0538 0.0251,-0.0817 0.0124,-0.0832 z m -0.39533,0.0894 c -0.0875,-0.007 -0.15503,0.0317 -0.15503,0.0997 0,0.0771 0.0298,0.0849 0.0708,0.0186 0.016,-0.0259 0.0863,-0.0485 0.15607,-0.0501 0.12289,-0.003 0.1235,-0.005 0.0207,-0.046 -0.0318,-0.0128 -0.0634,-0.02 -0.0925,-0.0222 z m 0.0372,0.31264 c -0.0164,6.8e-4 -0.0304,0.005 -0.0382,0.0129 -0.0156,0.0156 0.0123,0.0263 0.062,0.0243 0.0549,-0.002 0.066,-0.0134 0.0284,-0.0284 -0.017,-0.007 -0.0358,-0.01 -0.0522,-0.009 z m 11.96826,17.57775 v 0.681612 c 0,0.375076 -0.0162,0.683747 -0.0357,0.685747 -0.0194,0.002 -0.0671,0.0093 -0.10594,0.01654 -0.0389,0.0072 -0.21243,0.02772 -0.3855,0.04496 -0.17308,0.01723 -0.39543,0.06385 -0.49455,0.103869 -0.31714,0.12808 -0.6699,0.313733 -0.76636,0.403593 -0.0515,0.04798 -0.11364,0.08733 -0.13849,0.08733 -0.0249,0 -0.0524,0.01722 -0.061,0.03824 -0.009,0.02102 -0.18536,0.184575 -0.39274,0.363285 -0.43395,0.373944 -0.61461,0.533645 -0.72399,0.640788 -0.1459,0.142917 -0.64273,0.455304 -0.9493,0.596862 -0.63131,0.291513 -0.97756,0.357651 -1.8619,0.356051 -0.44069,-7.9e-4 -0.88591,-0.02486 -0.9896,-0.05323 -0.10369,-0.02837 -0.26763,-0.07117 -0.3638,-0.0956 -0.22517,-0.0572 -1.07384,-0.477907 -1.07384,-0.532267 0,-0.0228 -0.0235,-0.04134 -0.0522,-0.04134 -0.0506,0 -0.36443,-0.226458 -0.51935,-0.374654 -0.0666,-0.06375 -0.44815,-0.403978 -0.83767,-0.746725 -0.14477,-0.127387 -0.53564,-0.389151 -0.73536,-0.492476 -0.51003,-0.263833 -1.11697,-0.356345 -1.77767,-0.270785 -0.49951,0.06469 -1.00835,0.235048 -1.19682,0.399976 -0.0296,0.02592 -0.10245,0.07893 -0.16175,0.117822 -0.0593,0.03889 -0.1467,0.107592 -0.1943,0.152962 -0.0476,0.04536 -0.0964,0.08268 -0.10852,0.08268 -0.0121,0 -0.0927,0.06871 -0.17932,0.152962 -0.23286,0.226611 -0.49944,0.460886 -0.76481,0.67231 -0.12962,0.103264 -0.24642,0.198397 -0.25942,0.211357 -0.0574,0.0574 -0.32247,0.222055 -0.49506,0.307475 -0.10369,0.05132 -0.19512,0.109234 -0.20412,0.128674 -0.009,0.01945 -0.0406,0.0358 -0.0708,0.03669 -0.0302,8.8e-4 -0.13971,0.04293 -0.2434,0.09302 -0.1037,0.05008 -0.22051,0.09172 -0.25941,0.09302 -0.0389,0.0013 -0.15521,0.03292 -0.2589,0.07028 -0.10369,0.03736 -0.30546,0.07123 -0.44804,0.07493 -0.14258,0.0037 -0.31243,0.02484 -0.37723,0.04703 -0.0648,0.02221 -0.22385,0.03018 -0.35347,0.01757 -0.12961,-0.01261 -0.37848,-0.03627 -0.55346,-0.05219 -0.17497,-0.01592 -0.31832,-0.04398 -0.31832,-0.06253 0,-0.01855 -0.10546,-0.04619 -0.23461,-0.0615 -0.12914,-0.0153 -0.37493,-0.09252 -0.54571,-0.171566 -0.17078,-0.07904 -0.31814,-0.14366 -0.32814,-0.14366 -0.0867,0 -1.01196,-0.69873 -1.25987,-0.951363 -0.0972,-0.09903 -0.19634,-0.179834 -0.22014,-0.179834 -0.0238,0 -0.0499,-0.01861 -0.0589,-0.04134 -0.0275,-0.07227 -0.57887,-0.523535 -0.64027,-0.523999 -0.0324,-2.3e-4 -0.0589,-0.01618 -0.0589,-0.03566 0,-0.03794 -0.28132,-0.186501 -0.58911,-0.311092 -0.31928,-0.129288 -0.96945,-0.18339 -1.47536,-0.12299 -0.56475,0.06743 -0.92859,0.215389 -1.42317,0.579293 -0.26458,0.194673 -0.3028,0.227106 -0.75448,0.646472 -0.54076,0.502079 -1.41065,1.081587 -1.62367,1.081587 -0.04,0 -0.0729,0.01959 -0.0729,0.04341 0,0.02383 -0.0903,0.06507 -0.20051,0.09147 -0.11017,0.0264 -0.28491,0.06884 -0.3886,0.09457 -0.1037,0.02573 -0.37958,0.05371 -0.61289,0.06201 l -0.42426,0.01499 -0.0129,-0.646471 c -0.015,-0.742276 -0.0837,-0.650601 0.55501,-0.744141 0.34807,-0.05098 0.59397,-0.127253 0.87229,-0.271301 0.20025,-0.103645 0.80535,-0.568593 1.08314,-0.831991 0.12922,-0.122523 0.33587,-0.300081 0.4594,-0.394291 0.12353,-0.09421 0.2248,-0.188173 0.2248,-0.208773 0,-0.0206 0.03,-0.03721 0.0667,-0.03721 0.0367,0 0.0737,-0.0157 0.0827,-0.03514 0.0239,-0.05366 0.31162,-0.24753 0.36742,-0.24753 0.0269,0 0.0486,-0.01697 0.0486,-0.03721 0,-0.03638 0.0343,-0.05304 0.49506,-0.246497 0.89539,-0.375902 2.18328,-0.414323 3.13417,-0.09302 0.24627,0.08322 0.45881,0.164864 0.47181,0.181384 0.013,0.01652 0.10817,0.07205 0.21187,0.12299 0.30798,0.151292 1.03968,0.725414 1.51877,1.191659 0.0866,0.08425 0.17799,0.152962 0.20309,0.152962 0.0251,0 0.0455,0.01842 0.0455,0.04082 0,0.0224 0.0903,0.101994 0.2005,0.176734 0.11017,0.07474 0.21076,0.14664 0.22376,0.15968 0.0329,0.03308 0.31779,0.169215 0.53899,0.257865 0.10196,0.04087 0.38324,0.09921 0.62476,0.129708 0.501,0.06328 1.1572,0.004 1.52291,-0.137459 0.20959,-0.08109 0.61023,-0.298884 0.72088,-0.392224 0.0314,-0.02648 0.102,-0.08482 0.1571,-0.129708 0.20893,-0.170164 0.60075,-0.512173 0.76533,-0.66766 0.51442,-0.485988 1.6083,-1.134297 1.91358,-1.134297 0.0432,0 0.12283,-0.02386 0.17673,-0.05271 0.0539,-0.02884 0.33007,-0.07071 0.61392,-0.09354 1.20425,-0.0968 2.15373,0.136886 3.01738,0.743624 0.29756,0.209045 0.35132,0.254526 1.23094,1.040247 0.12334,0.110176 0.24155,0.200504 0.26303,0.200504 0.0215,0 0.0494,0.02703 0.062,0.05994 0.0191,0.04977 0.48939,0.303 0.85938,0.463021 0.29349,0.12694 1.06811,0.169093 1.5751,0.08578 0.67949,-0.111653 1.33343,-0.530214 2.35437,-1.506885 0.15492,-0.148196 0.46872,-0.374654 0.51935,-0.374654 0.0287,0 0.0522,-0.01703 0.0522,-0.03824 0,-0.0212 0.16445,-0.120668 0.36536,-0.220658 0.51898,-0.258301 0.50794,-0.253375 0.71726,-0.305925 0.45668,-0.114642 0.56451,-0.132826 0.93225,-0.158646 z" /><text
       xml:space="preserve"
       style="font-style:normal;font-variant:normal;font-weight:normal;font-stretch:normal;font-size:23.014px;line-height:normal;font-family:sans-serif;-inkscape-font-specification:sans-serif;font-variant-ligatures:normal;font-variant-position:normal;font-variant-caps:normal;font-variant-numeric:normal;font-variant-alternates:normal;font-variant-east-asian:normal;font-feature-settings:normal;font-variation-settings:normal;text-indent:0;text-align:start;text-decoration-line:none;text-decoration-style:solid;text-decoration-color:#000000;letter-spacing:normal;word-spacing:normal;text-transform:none;writing-mode:lr-tb;direction:ltr;text-orientation:mixed;dominant-baseline:auto;baseline-shift:baseline;text-anchor:start;white-space:normal;shape-padding:0;shape-margin:0;inline-size:0;opacity:1;vector-effect:none;fill:#000000;fill-opacity:1;stroke:none;stroke-width:1.2508;stroke-linecap:butt;stroke-linejoin:miter;stroke-miterlimit:4;stroke-dasharray:none;stroke-dashoffset:0;stroke-opacity:1;-inkscape-stroke:none;paint-order:markers stroke fill;stop-color:#000000;stop-opacity:1"
       x="317.34616"
       y="73.751839"
       id="text247"
       transform="matrix(0.40568084,0,0,0.40568084,-10.929194,-259.69793)"><tspan
         sodipodi:role="line"
         id="tspan245"
         x="317.34616"
         y="73.751839"
         style="stroke-width:1.2508">T<tspan
   style="font-size:65%;baseline-shift:sub;stroke-width:1.2508"
   id="tspan299">shower</tspan></tspan></text><text
       xml:space="preserve"
       style="font-style:normal;font-variant:normal;font-weight:normal;font-stretch:normal;font-size:23.014px;line-height:normal;font-family:sans-serif;-inkscape-font-specification:sans-serif;font-variant-ligatures:normal;font-variant-position:normal;font-variant-caps:normal;font-variant-numeric:normal;font-variant-alternates:normal;font-variant-east-asian:normal;font-feature-settings:normal;font-variation-settings:normal;text-indent:0;text-align:start;text-decoration-line:none;text-decoration-style:solid;text-decoration-color:#000000;letter-spacing:normal;word-spacing:normal;text-transform:none;writing-mode:lr-tb;direction:ltr;text-orientation:mixed;dominant-baseline:auto;baseline-shift:baseline;text-anchor:start;white-space:normal;shape-padding:0;shape-margin:0;inline-size:0;vector-effect:none;fill:#000000;fill-opacity:1;stroke:none;stroke-width:1.2508;stroke-linecap:butt;stroke-linejoin:miter;stroke-miterlimit:4;stroke-dasharray:none;stroke-dashoffset:0;stroke-opacity:1;-inkscape-stroke:none;paint-order:markers stroke fill;stop-color:#000000"
       x="317.34616"
       y="73.751839"
       id="text247-3"
       transform="matrix(0.40568084,0,0,0.40568084,-80.26434,-261.58722)"><tspan
         sodipodi:role="line"
         id="tspan245-6"
         x="317.34616"
         y="73.751839"
         style="stroke-width:1.2508">T<tspan
   style="font-size:65%;baseline-shift:sub;stroke-width:1.2508"
   id="tspan299-7">hot</tspan></tspan></text><text
       xml:space="preserve"
       style="font-style:normal;font-variant:normal;font-weight:normal;font-stretch:normal;font-size:23.014px;line-height:normal;font-family:sans-serif;-inkscape-font-specification:sans-serif;font-variant-ligatures:normal;font-variant-position:normal;font-variant-caps:normal;font-variant-numeric:normal;font-variant-alternates:normal;font-variant-east-asian:normal;font-feature-settings:normal;font-variation-settings:normal;text-indent:0;text-align:start;text-decoration-line:none;text-decoration-style:solid;text-decoration-color:#000000;letter-spacing:normal;word-spacing:normal;text-transform:none;writing-mode:lr-tb;direction:ltr;text-orientation:mixed;dominant-baseline:auto;baseline-shift:baseline;text-anchor:start;white-space:normal;shape-padding:0;shape-margin:0;inline-size:0;vector-effect:none;fill:#000000;fill-opacity:1;stroke:none;stroke-width:1.2508;stroke-linecap:butt;stroke-linejoin:miter;stroke-miterlimit:4;stroke-dasharray:none;stroke-dashoffset:0;stroke-opacity:1;-inkscape-stroke:none;paint-order:markers stroke fill;stop-color:#000000"
       x="317.34616"
       y="73.751839"
       id="text512"
       transform="matrix(0.40568084,0,0,0.40568084,-80.26434,-239.85239)"><tspan
         sodipodi:role="line"
         id="tspan510"
         x="317.34616"
         y="73.751839"
         style="stroke-width:1.2508">T<tspan
   style="font-size:65%;baseline-shift:sub;stroke-width:1.2508"
   id="tspan508">cold</tspan></tspan></text><text
       xml:space="preserve"
       style="font-style:normal;font-variant:normal;font-weight:normal;font-stretch:normal;font-size:23.014px;line-height:normal;font-family:sans-serif;-inkscape-font-specification:sans-serif;font-variant-ligatures:normal;font-variant-position:normal;font-variant-caps:normal;font-variant-numeric:normal;font-variant-alternates:normal;font-variant-east-asian:normal;font-feature-settings:normal;font-variation-settings:normal;text-indent:0;text-align:start;text-decoration-line:none;text-decoration-style:solid;text-decoration-color:#000000;letter-spacing:normal;word-spacing:normal;text-transform:none;writing-mode:lr-tb;direction:ltr;text-orientation:mixed;dominant-baseline:auto;baseline-shift:baseline;text-anchor:start;white-space:normal;shape-padding:0;shape-margin:0;inline-size:0;opacity:1;vector-effect:none;fill:#000000;fill-opacity:1;stroke:none;stroke-width:1.2508;stroke-linecap:butt;stroke-linejoin:miter;stroke-miterlimit:4;stroke-dasharray:none;stroke-dashoffset:0;stroke-opacity:1;-inkscape-stroke:none;paint-order:markers stroke fill;stop-color:#000000;stop-opacity:1"
       x="317.34616"
       y="73.751839"
       id="text545"
       transform="matrix(0.40568084,0,0,0.40568084,-9.5789576,-116.22494)"><tspan
         sodipodi:role="line"
         id="tspan543"
         x="317.34616"
         y="73.751839"
         style="stroke-width:1.2508">T<tspan
   style="font-size:65%;baseline-shift:sub;stroke-width:1.2508"
   id="tspan541">drain</tspan></tspan></text></g></svg>
